<svg width="12" height="12" viewBox="0 0 12 12" fill="none" xmlns="http://www.w3.org/2000/svg">
<path fill-rule="evenodd" clip-rule="evenodd" d="M6 12.0005C5.97418 12.0005 5.9484 12.0003 5.92266 12H5.7V11.9931C2.52567 11.8368 0 9.2136 0 6.00049C0 2.78738 2.52567 0.164167 5.7 0.00785783V0H6.3V0.00785782C9.47433 0.164167 12 2.78738 12 6.00049C12 9.2136 9.47433 11.8368 6.3 11.9931V12H6.07734C6.0516 12.0003 6.02582 12.0005 6 12.0005ZM6.3 10.8821C6.56715 10.6498 6.91654 10.3116 7.26574 9.87509C7.98887 8.97117 8.7 7.66041 8.7 6C8.7 4.33959 7.98887 3.02883 7.26574 2.12491C6.91654 1.68841 6.56715 1.35025 6.3 1.11789V10.8821ZM5.7 1.11887C5.43285 1.35122 5.08346 1.68939 4.73426 2.12589C4.01113 3.0298 3.3 4.34056 3.3 6.00098C3.3 7.66139 4.01113 8.97215 4.73426 9.87607C5.08346 10.3126 5.43285 10.6507 5.7 10.8831L5.7 1.11887ZM11.4 6.00049C11.4 8.75778 9.33344 11.0324 6.66469 11.36C6.95681 11.1084 7.34543 10.7359 7.73426 10.2499C8.51113 9.27883 9.3 7.83959 9.3 6C9.3 4.16041 8.51113 2.72117 7.73426 1.75009C7.34602 1.26479 6.95798 0.892703 6.66601 0.641153C9.33412 0.969323 11.4 3.24365 11.4 6.00049ZM5.33531 0.640991C5.04319 0.892556 4.65457 1.26504 4.26574 1.75107C3.48887 2.72215 2.7 4.16139 2.7 6.00098C2.7 7.84056 3.48887 9.2798 4.26574 10.2509C4.65398 10.7362 5.04202 11.1083 5.33399 11.3598C2.66588 11.0317 0.6 8.75733 0.6 6.00049C0.6 3.24319 2.66656 0.968572 5.33531 0.640991Z" fill="#ECECEC"/>
</svg>
