<?xml version="1.0" encoding="utf-8"?>
<!-- Generator: Adobe Illustrator 24.1.1, SVG Export Plug-In . SVG Version: 6.00 Build 0)  -->
<svg version="1.0" id="Livello_1" xmlns="http://www.w3.org/2000/svg" xmlns:xlink="http://www.w3.org/1999/xlink" x="0px" y="0px"
	 viewBox="0 0 43 43" style="enable-background:new 0 0 43 43;" xml:space="preserve">
<style type="text/css">
	.st0{display:none;fill-rule:evenodd;clip-rule:evenodd;fill:#E50000;}
	.st1{fill:#FFFFFF;}
</style>
<path class="st0" d="M0,43C11.5,24.3,4.8,6.5,0,0c7.3,4.9,14.3,6.2,18.1,6.5c4.3,12.3,2.2,25,0.4,30C11.9,36.4,3.3,40.9,0,43z
	 M14.8,10.8c-1.6-0.1-4.3-0.8-5.5-1.1c2.9,8.9,1.2,19.8,0,24.2c2-1,4.5-1.3,5.5-1.3C17.3,22.5,15.8,13.9,14.8,10.8z M22.4,6.7v18.3
	l5.2,11.7c2.8,0.4,10.1,2.4,15.4,6.2C38.1,36.1,31.4,17.7,43,0c0,0-2.3,1.5-3.6,2.2c-1.3,0.7-3,1.5-3,1.5
	c-2.6,3.5-6.7,14.6-2.6,30.1l-3.2-0.9l-3.8-9V6.2C26.2,6.4,24.5,6.7,22.4,6.7z"/>
<g>
	<path class="st1" d="M33.3,31.5c1.5,1.7,4.5,3.7,2.8,5.8c-1.1,1.4-4,0.9-5.6-0.1c-1.7-1.6-3.1-3.3-4-5.2c-1.5-2-3.5-3.7-5.1-5.7
		c-1.9,2.1-3.8,4.1-5.5,6.2c-0.9,1.1-2.1,2-3.1,3.1c-0.8,0.9-1.2,2.1-2.6,2.7c-1.4,0.4-3,0.1-3.9-0.8c-0.9-0.9-0.9-2,0.1-2.9
		c1.8-2,4.3-3.7,6.2-5.7c2-1.8,3.7-3.7,5.1-5.7c0.4-0.7,0-0.8-0.8-1.4c-0.5-0.4-1-0.9-1.4-1.4c-0.7-0.8-1.4-1.6-2-2.3
		c-1.4-1.6-2.7-3.3-4-5c-1.1-1-0.8-2.5,0.5-3.3c2.8-1.6,5,1.6,6,3c1.5,2.1,3.7,3.9,5.3,6c1.7-1.9,3.3-3.8,4.7-5.8
		c0.9-1.7,1.4-4.3,3.6-5.6c1.8-0.9,4.4-0.8,6,0.3c1.5,1.2,1.3,3-0.3,4c-1.9,1.4-3.5,3.1-4.8,4.8c-1.4,1.9-3,3.6-4.9,5.2
		c-0.5,0.5-0.9,0.7-0.7,1.2c0.3,0.5,0.7,1,1.1,1.4c0.9,0.8,1.7,1.5,2.5,2.4c0.5,0.9,1.2,1.8,2,2.6C31.6,30,32.5,30.7,33.3,31.5z"/>
</g>
</svg>
